<?xml version="1.0" encoding="UTF-8" standalone="no"?>
<!-- Created with Inkscape (http://www.inkscape.org/) -->

<svg
   xmlns:dc="http://purl.org/dc/elements/1.1/"
   xmlns:cc="http://creativecommons.org/ns#"
   xmlns:rdf="http://www.w3.org/1999/02/22-rdf-syntax-ns#"
   xmlns:svg="http://www.w3.org/2000/svg"
   xmlns="http://www.w3.org/2000/svg"
   xmlns:xlink="http://www.w3.org/1999/xlink"
   xmlns:sodipodi="http://sodipodi.sourceforge.net/DTD/sodipodi-0.dtd"
   xmlns:inkscape="http://www.inkscape.org/namespaces/inkscape"
   version="1.1"
   id="svg2"
   xml:space="preserve"
   width="666.66669"
   height="666.66669"
   viewBox="0 0 666.66669 666.66669"
   sodipodi:docname="banner-image.svg"
   inkscape:version="0.92.4 (5da689c313, 2019-01-14)"><metadata
     id="metadata8"><rdf:RDF><cc:Work
         rdf:about=""><dc:format>image/svg+xml</dc:format><dc:type
           rdf:resource="http://purl.org/dc/dcmitype/StillImage" /><dc:title /></cc:Work></rdf:RDF></metadata><defs
     id="defs6"><linearGradient
       inkscape:collect="always"
       id="linearGradient1014"><stop
         style="stop-color:#ffb380;stop-opacity:1"
         offset="0"
         id="stop1010" /><stop
         style="stop-color:#ffaacc;stop-opacity:1"
         offset="1"
         id="stop1012" /></linearGradient><clipPath
       clipPathUnits="userSpaceOnUse"
       id="clipPath18"><path
         d="M 0,500 H 500 V 0 H 0 Z"
         id="path16"
         inkscape:connector-curvature="0" /></clipPath><clipPath
       clipPathUnits="userSpaceOnUse"
       id="clipPath30"><path
         d="M 0,500 H 500 V 0 H 0 Z"
         id="path28"
         inkscape:connector-curvature="0" /></clipPath><clipPath
       clipPathUnits="userSpaceOnUse"
       id="clipPath42"><path
         d="M 0,500 H 500 V 0 H 0 Z"
         id="path40"
         inkscape:connector-curvature="0" /></clipPath><clipPath
       clipPathUnits="userSpaceOnUse"
       id="clipPath58"><path
         d="m 163.758,344.101 h 17.04 v -143.09 h -17.04 z"
         id="path56"
         inkscape:connector-curvature="0" /></clipPath><clipPath
       clipPathUnits="userSpaceOnUse"
       id="clipPath78"><path
         d="m 107.171,394.005 h 42.822 v -99.757 h -42.822 z"
         id="path76"
         inkscape:connector-curvature="0" /></clipPath><clipPath
       clipPathUnits="userSpaceOnUse"
       id="clipPath94"><path
         d="m 130.2,420.178 h 65.129 v -37.61 H 130.2 Z"
         id="path92"
         inkscape:connector-curvature="0" /></clipPath><clipPath
       clipPathUnits="userSpaceOnUse"
       id="clipPath114"><path
         d="m 118.617,470.032 h 88.271 v -50.984 h -88.271 z"
         id="path112"
         inkscape:connector-curvature="0" /></clipPath><clipPath
       clipPathUnits="userSpaceOnUse"
       id="clipPath130"><path
         d="m 117.85,430.473 h 22.009 V 386.107 H 117.85 Z"
         id="path128"
         inkscape:connector-curvature="0" /></clipPath><clipPath
       clipPathUnits="userSpaceOnUse"
       id="clipPath146"><path
         d="m 107.179,305.673 h 63.607 V 201.011 h -63.607 z"
         id="path144"
         inkscape:connector-curvature="0" /></clipPath><clipPath
       clipPathUnits="userSpaceOnUse"
       id="clipPath162"><path
         d="M 163.752,327.166 H 173.77 V 201.011 h -10.018 z"
         id="path160"
         inkscape:connector-curvature="0" /></clipPath><clipPath
       clipPathUnits="userSpaceOnUse"
       id="clipPath202"><path
         d="M 0,500 H 500 V 0 H 0 Z"
         id="path200"
         inkscape:connector-curvature="0" /></clipPath><clipPath
       clipPathUnits="userSpaceOnUse"
       id="clipPath234"><path
         d="m 305.351,145.584 h 17.777 v -11.21 h -17.777 z"
         id="path232"
         inkscape:connector-curvature="0" /></clipPath><clipPath
       clipPathUnits="userSpaceOnUse"
       id="clipPath258"><path
         d="m 305.372,145.574 h 17.747 v -23.322 h -17.747 z"
         id="path256"
         inkscape:connector-curvature="0" /></clipPath><clipPath
       clipPathUnits="userSpaceOnUse"
       id="clipPath282"><path
         d="m 305.351,144.96 h 17.776 v -10.586 h -17.776 z"
         id="path280"
         inkscape:connector-curvature="0" /></clipPath><clipPath
       clipPathUnits="userSpaceOnUse"
       id="clipPath314"><path
         d="m 365.458,389.539 h 25.596 V 364.17 h -25.596 z"
         id="path312"
         inkscape:connector-curvature="0" /></clipPath><clipPath
       clipPathUnits="userSpaceOnUse"
       id="clipPath350"><path
         d="m 368.226,393.972 h 25.106 v -15.83 h -25.106 z"
         id="path348"
         inkscape:connector-curvature="0" /></clipPath><linearGradient
       inkscape:collect="always"
       xlink:href="#linearGradient1014"
       id="linearGradient1016"
       x1="-64.249625"
       y1="81.0305"
       x2="374.467"
       y2="81.0305"
       gradientUnits="userSpaceOnUse" /></defs><sodipodi:namedview
     pagecolor="#ffffff"
     bordercolor="#666666"
     borderopacity="1"
     objecttolerance="10"
     gridtolerance="10"
     guidetolerance="10"
     inkscape:pageopacity="0"
     inkscape:pageshadow="2"
     inkscape:window-width="1920"
     inkscape:window-height="1013"
     id="namedview4"
     showgrid="false"
     inkscape:object-paths="true"
     inkscape:zoom="0.70799998"
     inkscape:cx="759.07444"
     inkscape:cy="285.91689"
     inkscape:window-x="-9"
     inkscape:window-y="-9"
     inkscape:window-maximized="1"
     inkscape:current-layer="g24" /><g
     id="g10"
     inkscape:groupmode="layer"
     inkscape:label="2905212"
     transform="matrix(1.3333333,0,0,-1.3333333,0,666.66667)"><g
       id="g1431"><g
         id="g12"><g
           clip-path="url(#clipPath18)"
           id="g14"><g
             transform="translate(94.9404,61.4019)"
             id="g20"><path
               inkscape:connector-curvature="0"
               id="path22"
               style="fill:url(#linearGradient1016);fill-opacity:1;fill-rule:nonzero;stroke:none"
               d="m 0,0 c 85.665,-44.751 224.555,-44.753 310.219,-0.001 85.664,44.753 85.664,117.31 0,162.062 -85.665,44.752 -224.555,44.752 -310.22,0.001 C -85.666,117.31 -85.666,44.752 0,0" /></g></g></g><g
         id="g24"><path
           inkscape:connector-curvature="0"
           id="path34"
           style="fill:#ff8080;fill-opacity:1;fill-rule:nonzero;stroke:none;opacity:1"
           d="m 431.0195,110.2461 c -18.751,-10.826 -49.154,-10.826 -67.905,0 -18.752,10.827 -18.752,28.379 0,39.206 18.751,10.826 49.153,10.826 67.905,0 18.752,-10.827 18.752,-28.38 0,-39.206" /></g><g
         id="g36"><g
           clip-path="url(#clipPath42)"
           id="g38"><g
             transform="translate(152.4785,354.5044)"
             id="g44"><path
               inkscape:connector-curvature="0"
               id="path46"
               style="fill:#ff5555;fill-opacity:1;fill-rule:nonzero;stroke:none"
               d="m 0,0 c -4.702,-2.716 -8.526,-10.013 -8.526,-16.285 0,-5.591 3.045,-8.49 7.027,-7.126 v -118.661 l -43.245,90.747 c -0.724,1.519 -0.755,3.994 -0.088,5.537 10.92,25.271 18.981,53.739 21.728,82.95 0.157,1.674 1.446,3.715 2.903,4.556 l 40.402,23.325 c 1.456,0.841 2.756,0.164 2.935,-1.509 C 25.847,38.268 33.582,19.514 44.066,6.9 45.141,5.607 45.666,3.302 45.171,1.694 39.096,-18.066 4.056,-132.024 1.498,-140.343 v 118.662 c 3.995,3.252 7.028,9.647 7.028,15.238 C 8.526,-0.159 4.714,2.716 0,0" /></g><g
             transform="translate(217.4429,344.7725)"
             id="g48"><path
               inkscape:connector-curvature="0"
               id="path50"
               style="fill:#ff5555;fill-opacity:1;fill-rule:nonzero;stroke:none"
               d="m 0,0 -43.673,-142.036 -2.984,1.732 v -3.457 l -19.806,11.421 -43.245,90.747 c -0.724,1.519 -0.755,3.994 -0.088,5.537 10.92,25.271 18.981,53.739 21.727,82.95 0.158,1.674 1.447,3.715 2.903,4.556 l 40.402,23.325 c 1.457,0.841 3.818,0.841 5.275,0 l 14.518,-8.38 c 1.457,-0.841 2.757,-2.88 2.936,-4.553 C -19.324,36.564 -11.589,17.81 -1.105,5.205 -0.03,3.912 0.494,1.607 0,0" /></g><g
             id="g52"><g
               id="g54" /><g
               id="g66"><g
                 style="opacity:0.14999402"
                 id="g64"
                 clip-path="url(#clipPath58)"><g
                   id="g62"
                   transform="translate(180.7983,336.6357)"><path
                     inkscape:connector-curvature="0"
                     id="path60"
                     style="fill:#000000;fill-opacity:1;fill-rule:nonzero;stroke:none"
                     d="m 0,0 c 0,-5.603 -3.033,-11.998 -7.028,-15.238 v -118.661 l -2.985,1.732 v -3.458 118.658 c -3.995,-1.365 -7.028,1.522 -7.028,7.113 0,6.285 3.813,13.581 8.527,16.297 C -3.813,9.16 0,6.273 0,0" /></g></g></g></g><g
             transform="translate(217.4429,344.7725)"
             id="g68"><path
               inkscape:connector-curvature="0"
               id="path70"
               style="fill:#ff5555;fill-opacity:1;fill-rule:nonzero;stroke:none"
               d="m 0,0 -43.673,-142.036 v 118.661 c 3.995,3.24 7.028,9.635 7.028,15.238 0,6.273 -3.813,9.16 -8.514,6.444 -4.714,-2.717 -8.527,-10.013 -8.527,-16.298 0,-5.591 3.034,-8.477 7.029,-7.113 v -118.657 l -43.258,90.731 c -0.724,1.518 -0.755,3.993 -0.088,5.537 10.921,25.271 18.993,53.74 21.74,82.962 0.157,1.674 1.446,3.715 2.903,4.556 l 40.39,23.325 c 1.456,0.84 2.756,0.165 2.935,-1.508 C -19.324,36.564 -11.589,17.81 -1.105,5.205 -0.03,3.912 0.494,1.607 0,0" /></g><g
             id="g72"><g
               id="g74" /><g
               id="g86"><g
                 style="opacity:0.25"
                 id="g84"
                 clip-path="url(#clipPath78)"><g
                   id="g82"
                   transform="translate(149.9932,382.5679)"><path
                     inkscape:connector-curvature="0"
                     id="path80"
                     style="fill:#ffffff;fill-opacity:1;fill-rule:nonzero;stroke:none"
                     d="m 0,0 c -0.45,-0.743 -0.743,-1.583 -0.816,-2.327 -2.74,-29.22 -10.816,-57.686 -21.742,-82.96 -0.353,-0.84 -0.511,-1.949 -0.463,-3.033 l -19.793,11.425 c -0.048,1.084 0.11,2.205 0.463,3.045 10.926,25.274 18.989,53.74 21.73,82.949 0.073,0.755 0.378,1.583 0.828,2.339 z" /></g></g></g></g><g
             id="g88"><g
               id="g90" /><g
               id="g102"><g
                 style="opacity:0.14999402"
                 id="g100"
                 clip-path="url(#clipPath94)"><g
                   id="g98"
                   transform="translate(195.3291,407.0381)"><path
                     inkscape:connector-curvature="0"
                     id="path96"
                     style="fill:#000000;fill-opacity:1;fill-rule:nonzero;stroke:none"
                     d="m 0,0 c -0.329,1.365 -1.535,1.852 -2.85,1.084 l -40.403,-23.325 c -0.804,-0.463 -1.547,-1.291 -2.083,-2.229 l -19.793,11.437 c 0.536,0.926 1.279,1.754 2.071,2.217 l 40.402,23.325 c 1.462,0.841 3.825,0.841 5.286,0 L -2.862,4.129 C -1.522,3.362 -0.317,1.583 0,0" /></g></g></g></g><g
             transform="translate(120.4873,432.4468)"
             id="g104"><path
               inkscape:connector-curvature="0"
               id="path106"
               style="fill:#ff5555;fill-opacity:1;fill-rule:nonzero;stroke:none"
               d="m 0,0 63.988,36.951 c 1.457,0.841 3.818,0.841 5.275,0 l 14.522,-8.385 c 1.456,-0.841 2.637,-2.886 2.637,-4.568 V -4.195 c 0,-1.682 -1.181,-3.727 -2.637,-4.568 L 19.796,-45.714 c -1.456,-0.841 -3.817,-0.841 -5.274,0 L 0,-37.329 c -1.457,0.841 -2.637,2.886 -2.637,4.568 v 28.193 c 0,1.682 1.18,3.727 2.637,4.568" /></g><g
             id="g108"><g
               id="g110" /><g
               id="g122"><g
                 style="opacity:0.39999402"
                 id="g120"
                 clip-path="url(#clipPath114)"><g
                   id="g118"
                   transform="translate(206.8882,456.8682)"><path
                     inkscape:connector-curvature="0"
                     id="path116"
                     style="fill:#ffffff;fill-opacity:1;fill-rule:nonzero;stroke:none"
                     d="m 0,0 c -0.183,1.364 -1.291,1.864 -2.619,1.097 l -63.984,-36.944 c -0.73,-0.414 -1.388,-1.145 -1.863,-1.973 l -19.805,11.425 c 0.487,0.829 1.145,1.56 1.875,1.974 l 63.984,36.955 c 1.462,0.84 3.812,0.84 5.274,0 L -2.619,4.142 C -1.279,3.374 -0.17,1.583 0,0" /></g></g></g></g><g
             id="g124"><g
               id="g126" /><g
               id="g138"><g
                 style="opacity:0.14999402"
                 id="g136"
                 clip-path="url(#clipPath130)"><g
                   id="g134"
                   transform="translate(139.8594,386.5264)"><path
                     inkscape:connector-curvature="0"
                     id="path132"
                     style="fill:#000000;fill-opacity:1;fill-rule:nonzero;stroke:none"
                     d="m 0,0 c -0.024,-0.012 -0.036,-0.012 -0.061,-0.024 -0.048,-0.013 -0.097,-0.037 -0.158,-0.049 -0.049,-0.036 -0.11,-0.049 -0.171,-0.073 -0.085,-0.037 -0.17,-0.061 -0.256,-0.073 -0.097,-0.025 -0.207,-0.049 -0.316,-0.073 -0.061,-0.012 -0.134,-0.024 -0.22,-0.037 -0.146,-0.024 -0.304,-0.048 -0.45,-0.061 -1.133,-0.109 -2.339,0.086 -3.216,0.597 l -14.519,8.38 c -1.462,0.841 -2.643,2.887 -2.643,4.568 v 28.198 c 0,0.84 0.292,1.766 0.767,2.594 L -1.437,32.522 c -0.487,-0.828 -0.78,-1.754 -0.78,-2.595 V 1.729 c 0,-1.193 0.597,-1.887 1.462,-1.887 0.122,0 0.243,0.012 0.378,0.049 C -0.256,-0.085 -0.134,-0.048 0,0" /></g></g></g></g><g
             id="g140"><g
               id="g142" /><g
               id="g154"><g
                 style="opacity:0.14999402"
                 id="g152"
                 clip-path="url(#clipPath146)"><g
                   id="g150"
                   transform="translate(170.7856,201.0112)"><path
                     inkscape:connector-curvature="0"
                     id="path148"
                     style="fill:#000000;fill-opacity:1;fill-rule:nonzero;stroke:none"
                     d="m 0,0 -19.806,11.421 -43.24,90.744 c -0.329,0.694 -0.512,1.583 -0.56,2.497 l 19.793,-11.426 c 0.037,-0.913 0.231,-1.814 0.56,-2.508 z" /></g></g></g></g><g
             id="g156"><g
               id="g158" /><g
               id="g170"><g
                 style="opacity:0.14999402"
                 id="g168"
                 clip-path="url(#clipPath162)"><g
                   id="g166"
                   transform="translate(173.7695,321.3979)"><path
                     inkscape:connector-curvature="0"
                     id="path164"
                     style="fill:#000000;fill-opacity:1;fill-rule:nonzero;stroke:none"
                     d="m 0,0 v -118.662 l -2.984,1.732 v -3.457 118.658 c -3.995,-1.365 -7.034,1.516 -7.034,7.107 0,0.134 0,0.256 0.013,0.39 z" /></g></g></g></g><g
             transform="translate(265.2412,355.5229)"
             id="g172"><path
               inkscape:connector-curvature="0"
               id="path174"
               style="fill:#375a64;fill-opacity:1;fill-rule:nonzero;stroke:none"
               d="m 0,0 c 0,3.223 -2.264,4.53 -5.055,2.918 -2.791,-1.612 -5.053,-5.531 -5.053,-8.754 0,-2.611 1.495,-3.933 3.543,-3.496 -2.847,-59.608 -44.575,-129.855 -95.476,-159.242 -25.291,-14.601 -49,-16.998 -66.757,-6.746 -16.77,9.684 -26.415,29.613 -27.437,56.398 2.082,1.924 3.609,5.009 3.609,7.648 -0.001,3.223 -2.264,4.529 -5.055,2.918 -2.791,-1.612 -5.054,-5.531 -5.054,-8.754 0,-2.752 1.654,-4.088 3.873,-3.424 1.362,-26.989 11.436,-47.138 28.718,-57.114 7.671,-4.429 16.362,-6.628 25.762,-6.628 13.429,0 28.298,4.488 43.687,13.374 52.067,30.06 94.667,102.28 96.881,163.061 C -1.626,-5.937 0,-2.727 0,0" /></g><g
             transform="translate(260.1865,246.9761)"
             id="g176"><path
               inkscape:connector-curvature="0"
               id="path178"
               style="fill:#375a64;fill-opacity:1;fill-rule:nonzero;stroke:none"
               d="m 0,0 c -2.322,-1.341 -4.259,-4.279 -4.851,-7.085 l -182.982,-105.646 c -0.652,1.977 -2.539,2.603 -4.793,1.302 -2.791,-1.612 -5.055,-5.531 -5.055,-8.755 0,-3.223 2.264,-4.529 5.055,-2.918 2.391,1.381 4.382,4.454 4.908,7.332 L -4.85,-10.19 c 0.592,-2.122 2.528,-2.823 4.85,-1.482 2.792,1.611 5.055,5.531 5.055,8.754 C 5.055,0.305 2.791,1.611 0,0" /></g><g
             transform="translate(74.6152,241.4111)"
             id="g180"><path
               inkscape:connector-curvature="0"
               id="path182"
               style="fill:#375a64;fill-opacity:1;fill-rule:nonzero;stroke:none"
               d="m 0,0 c 0,-3.969 -3.217,-7.186 -7.186,-7.186 -3.968,0 -7.185,3.217 -7.185,7.186 0,3.968 3.217,7.186 7.185,7.186 C -3.217,7.186 0,3.968 0,0" /></g><g
             transform="translate(74.3428,129.8491)"
             id="g184"><path
               inkscape:connector-curvature="0"
               id="path186"
               style="fill:#375a64;fill-opacity:1;fill-rule:nonzero;stroke:none"
               d="m 0,0 c 0,-3.969 -3.217,-7.186 -7.186,-7.186 -3.968,0 -7.185,3.217 -7.185,7.186 0,3.968 3.217,7.186 7.185,7.186 C -3.217,7.186 0,3.968 0,0" /></g><g
             transform="translate(267.7764,240.9541)"
             id="g188"><path
               inkscape:connector-curvature="0"
               id="path190"
               style="fill:#375a64;fill-opacity:1;fill-rule:nonzero;stroke:none"
               d="m 0,0 c 0,-3.968 -3.217,-7.186 -7.186,-7.186 -3.967,0 -7.185,3.218 -7.185,7.186 0,3.968 3.218,7.186 7.185,7.186 C -3.217,7.186 0,3.968 0,0" /></g><g
             transform="translate(267.1162,352.75)"
             id="g192"><path
               inkscape:connector-curvature="0"
               id="path194"
               style="fill:#375a64;fill-opacity:1;fill-rule:nonzero;stroke:none"
               d="m 0,0 c 0,-3.968 -3.218,-7.186 -7.186,-7.186 -3.968,0 -7.185,3.218 -7.185,7.186 0,3.969 3.217,7.186 7.185,7.186 C -3.218,7.186 0,3.969 0,0" /></g></g></g><g
         id="g196"><g
           clip-path="url(#clipPath202)"
           id="g198"><g
             transform="translate(308.2393,118.6602)"
             id="g204"><path
               inkscape:connector-curvature="0"
               id="path206"
               style="fill:#1a2e35;fill-opacity:1;fill-rule:nonzero;stroke:none"
               d="m 0,0 c -1.484,-3.275 -6.908,-4.027 -10.058,-4.133 -4.8,-0.16 -9.215,1.997 -13.483,3.937 -3.001,1.363 -5.909,2.92 -8.866,4.375 -2.929,1.441 -5.897,3.128 -9.108,3.849 -3.826,0.858 -10.559,1.276 -11.888,-3.594 -1.437,-5.262 5.776,-9.682 9.179,-12.214 3.307,-2.461 8.068,-5.31 9.729,-9.325 2.023,-4.893 -4.617,-6.434 -8.115,-6.622 -9.946,-0.533 -19.715,2.734 -28.853,6.292 -13.111,5.105 -26.159,10.707 -39.88,14.02 -11.474,2.77 -29.334,5.52 -35.964,-7.252 -0.132,-0.254 0.277,-0.727 0.454,-0.436 7.193,11.804 23.646,9.36 34.983,6.621 13.868,-3.351 27.026,-9.051 40.286,-14.186 8.867,-3.435 18.176,-6.421 27.793,-6.249 4.394,0.079 13.252,1.937 10.512,8.31 -1.421,3.306 -4.8,5.757 -7.562,7.879 -3.397,2.609 -7.251,5.021 -9.932,8.432 -1.709,2.173 -2.248,5.342 0.672,6.859 2.491,1.294 5.929,0.855 8.542,0.213 3.996,-0.982 7.788,-3.294 11.446,-5.136 3.38,-1.703 6.781,-3.343 10.278,-4.792 4.056,-1.681 8.116,-2.602 12.502,-1.869 2.886,0.481 7.19,1.534 8.378,4.603 C 1.279,0.189 0.252,0.557 0,0" /></g><g
             style="fill:#d38d5f"
             transform="translate(377.9873,319.8047)"
             id="g208"><path
               inkscape:connector-curvature="0"
               id="path210"
               style="fill:#d38d5f;fill-opacity:1;fill-rule:nonzero;stroke:none"
               d="m 0,0 c -5.117,-6.116 -13.569,-14.376 -18.365,-20.396 -2.518,-3.16 -3.947,-7.079 -3.889,-11.118 0.043,-2.999 0.858,-5.502 3.789,-4.224 2.116,0.923 3.463,2.021 6.554,5.068 2.779,2.741 16.223,15.337 16.223,15.337 0,0 2.517,15.481 6.67,16.742 4.155,1.26 7.69,7.887 7.69,7.887 C 11.893,9.979 6.493,7.76 0,0" /></g><path
             id="path1245"
             transform="matrix(0.75000002,0,0,-0.75000002,0,500.00002)"
             d="m 525.56836,227.71289 c -7.55169,0.0977 -14.01077,3.49354 -21.58594,12.54688 -1.69194,2.02226 -3.65915,4.22113 -5.75586,6.50585 3.91822,5.41991 7.72557,13.7259 2.88867,22.03126 -7.8e-4,0.001 -0.001,0.003 -0.002,0.004 4.42191,-4.16049 16.03439,-7.56604 16.03439,-7.56604 0,0 0.17729,-19.05391 5.71462,-20.73524 5.54,-1.68 6.01662,-12.63427 6.01662,-12.63427 -1.12984,-0.11383 -2.23174,-0.1663 -3.31055,-0.15234 z"
             style="opacity:1;vector-effect:none;fill:#e6e6e6;fill-opacity:1;fill-rule:evenodd;stroke:none;stroke-width:5;stroke-linecap:round;stroke-linejoin:round;stroke-miterlimit:4;stroke-dasharray:none;stroke-dashoffset:0;stroke-opacity:1;paint-order:normal"
             inkscape:connector-curvature="0"
             sodipodi:nodetypes="ccccccccc" /><g
             transform="translate(304.3848,152.291)"
             id="g212"><path
               inkscape:connector-curvature="0"
               id="path214"
               style="fill:#e7e7e7;fill-opacity:1;fill-rule:nonzero;stroke:none"
               d="m 0,0 c 0.011,0.042 0.03,0.08 0.043,0.121 l 62.932,233.356 c 0.007,0.007 0.007,0.007 0.007,0.023 l 0.016,0.063 c 0.016,0.048 0.032,0.111 0.056,0.166 0.103,0.324 0.255,0.648 0.453,0.94 0.198,0.324 0.436,0.623 0.722,0.907 0.864,0.86 2.123,1.56 3.751,1.983 5.601,1.487 13.454,-0.636 17.539,-4.741 1.6,-1.609 2.378,-3.279 2.414,-4.804 0.014,-0.428 -0.042,-0.847 -0.154,-1.241 L 25.456,-4.325 24.801,-6.743 24.795,-6.741 C 24.794,-6.745 24.794,-6.749 24.793,-6.752 24.318,-8.563 22.614,-10.035 19.839,-10.789 14.219,-12.273 6.35,-10.15 2.267,-6.046 0.236,-4.005 -0.497,-1.833 0,0" /></g><g
             transform="translate(306.4971,119.0464)"
             id="g216"><path
               inkscape:connector-curvature="0"
               id="path218"
               style="fill:#375a64;fill-opacity:1;fill-rule:nonzero;stroke:none"
               d="M 0,0 V 0 L 1.584,6.27 1.589,6.268 C 1.658,6.585 1.938,6.849 2.417,6.975 3.34,7.22 4.635,6.87 5.309,6.193 5.646,5.854 5.763,5.498 5.681,5.196 L 4.122,-1.069 C 4.024,-1.403 3.844,-1.718 3.58,-1.98 2.746,-2.81 1.397,-2.806 0.568,-1.973 0.034,-1.437 -0.154,-0.687 0,0" /></g><g
             transform="translate(306.4482,118.6387)"
             id="g220"><path
               inkscape:connector-curvature="0"
               id="path222"
               style="fill:#1a2e35;fill-opacity:1;fill-rule:nonzero;stroke:none"
               d="M 0,0 V 0.016 C 0.008,0.134 0.021,0.271 0.044,0.389 0.053,0.396 0.045,0.405 0.053,0.413 0.514,-0.873 3.031,-1.713 4.113,-0.782 4.105,-0.822 4.09,-0.869 4.073,-0.9 4.065,-0.94 4.032,-1.015 4.032,-1.015 3.945,-1.228 3.804,-1.406 3.629,-1.58 2.797,-2.407 1.445,-2.396 0.617,-1.564 0.184,-1.128 -0.025,-0.561 0,0" /></g><g
             transform="translate(306.4365,130.5308)"
             id="g224"><path
               inkscape:connector-curvature="0"
               id="path226"
               style="fill:#e1e1e1;fill-opacity:1;fill-rule:nonzero;stroke:none"
               d="m 0,0 c 2.334,-2.346 6.821,-3.559 10.024,-2.706 1.211,0.321 2.067,0.889 2.527,1.615 l 9.302,14.411 c -0.841,-1.026 -2.219,-1.844 -4.07,-2.346 -5.616,-1.487 -13.484,0.635 -17.569,4.741 -1.396,1.403 -2.175,2.867 -2.36,4.243 L -1.384,2.849 C -1.385,2.739 -1.377,2.62 -1.361,2.509 -1.276,1.695 -0.836,0.84 0,0" /></g><g
             id="g228"><g
               id="g230" /><g
               id="g242"><g
                 style="opacity:0.10000598"
                 id="g240"
                 clip-path="url(#clipPath234)"><g
                   id="g238"
                   transform="translate(307.0615,138.0659)"><path
                     inkscape:connector-curvature="0"
                     id="path236"
                     style="fill:#000000;fill-opacity:1;fill-rule:nonzero;stroke:none"
                     d="m 0,0 c 2.89,-2.905 8.459,-4.407 12.436,-3.356 1.963,0.533 3.169,1.575 3.505,2.856 0.383,1.297 -0.103,2.834 -1.572,4.311 C 11.495,6.731 5.926,8.233 1.949,7.183 -0.047,6.649 -1.269,5.592 -1.604,4.279 -1.956,2.981 -1.437,1.444 0,0" /></g></g></g></g><g
             transform="translate(306.4365,130.5308)"
             id="g244"><path
               inkscape:connector-curvature="0"
               id="path246"
               style="fill:#e1e1e1;fill-opacity:1;fill-rule:nonzero;stroke:none"
               d="m 0,0 c 2.334,-2.346 6.821,-3.559 10.024,-2.706 1.211,0.321 2.067,0.889 2.527,1.615 l 9.302,14.411 c -0.841,-1.026 -2.219,-1.844 -4.07,-2.346 -5.616,-1.487 -13.484,0.635 -17.569,4.741 -1.396,1.403 -2.175,2.867 -2.36,4.243 L -1.384,2.849 C -1.385,2.739 -1.377,2.62 -1.361,2.509 -1.276,1.695 -0.836,0.84 0,0" /></g><g
             transform="translate(306.1104,125.5239)"
             id="g248"><path
               inkscape:connector-curvature="0"
               id="path250"
               style="fill:#ff5555;fill-opacity:1;fill-rule:nonzero;stroke:none"
               d="m 0,0 h -0.002 -0.015 l -0.7,15.612 c -0.013,0.142 -0.027,0.284 -0.019,0.42 0.004,1.651 1.266,3.049 3.644,3.683 3.951,1.05 9.504,-0.451 12.393,-3.354 1.668,-1.676 2.083,-3.449 1.382,-4.856 -0.022,-0.036 -0.037,-0.064 -0.05,-0.092 L 16.396,11.05 7.84,-2.204 H 7.831 C 7.57,-2.61 7.091,-2.937 6.403,-3.12 4.602,-3.598 2.076,-2.914 0.763,-1.593 0.231,-1.059 -0.008,-0.505 0,0" /></g><g
             id="g252"><g
               id="g254" /><g
               id="g266"><g
                 style="opacity:0.10000598"
                 id="g264"
                 clip-path="url(#clipPath258)"><g
                   id="g262"
                   transform="translate(306.1104,125.5239)"><path
                     inkscape:connector-curvature="0"
                     id="path260"
                     style="fill:#000000;fill-opacity:1;fill-rule:nonzero;stroke:none"
                     d="m 0,0 h -0.002 -0.015 l -0.7,15.612 c -0.013,0.142 -0.027,0.284 -0.019,0.42 0.004,1.651 1.266,3.049 3.644,3.683 3.951,1.05 9.504,-0.451 12.393,-3.354 1.668,-1.676 2.083,-3.449 1.382,-4.856 -0.022,-0.036 -0.037,-0.064 -0.05,-0.092 L 16.396,11.05 7.84,-2.204 H 7.831 C 7.57,-2.61 7.091,-2.937 6.403,-3.12 4.602,-3.598 2.076,-2.914 0.763,-1.593 0.231,-1.059 -0.008,-0.505 0,0" /></g></g></g></g><g
             transform="translate(307.0615,138.0659)"
             id="g268"><path
               inkscape:connector-curvature="0"
               id="path270"
               style="fill:#ff5555;fill-opacity:1;fill-rule:nonzero;stroke:none"
               d="m 0,0 c 2.89,-2.905 8.459,-4.407 12.436,-3.356 1.963,0.533 3.169,1.575 3.505,2.856 0.383,1.297 -0.103,2.834 -1.572,4.311 C 11.495,6.731 5.926,8.233 1.949,7.183 -0.047,6.649 -1.269,5.592 -1.604,4.279 -1.956,2.981 -1.437,1.444 0,0" /></g><g
             transform="translate(307.0615,138.0659)"
             id="g272"><path
               inkscape:connector-curvature="0"
               id="path274"
               style="fill:#ff5555;fill-opacity:1;fill-rule:nonzero;stroke:none"
               d="m 0,0 c 2.89,-2.905 8.459,-4.407 12.436,-3.356 1.963,0.533 3.169,1.575 3.505,2.856 0.383,1.297 -0.103,2.834 -1.572,4.311 C 11.495,6.731 5.926,8.233 1.949,7.183 -0.047,6.649 -1.269,5.592 -1.604,4.279 -1.956,2.981 -1.437,1.444 0,0" /></g><g
             id="g276"><g
               id="g278" /><g
               id="g290"><g
                 style="opacity:0.05000311"
                 id="g288"
                 clip-path="url(#clipPath282)"><g
                   id="g286"
                   transform="translate(305.457,142.3447)"><path
                     inkscape:connector-curvature="0"
                     id="path284"
                     style="fill:#000000;fill-opacity:1;fill-rule:nonzero;stroke:none"
                     d="m 0,0 c 0.284,1.11 1.207,2.033 2.689,2.615 3.723,-2.799 9.274,-4.325 13.937,-3.838 0.946,-1.235 1.238,-2.478 0.92,-3.556 C 17.21,-6.06 16.004,-7.102 14.04,-7.635 10.063,-8.686 4.494,-7.184 1.604,-4.279 0.167,-2.834 -0.352,-1.297 0,0" /></g></g></g></g><g
             transform="translate(306.8701,123.9287)"
             id="g292"><path
               inkscape:connector-curvature="0"
               id="path294"
               style="fill:#ff5555;fill-opacity:1;fill-rule:nonzero;stroke:none"
               d="m 0,0 c 1.317,-1.324 3.837,-2.002 5.648,-1.524 0.681,0.188 1.164,0.51 1.417,0.921 h 0.017 l 4.135,6.4 C 10.772,5.277 10.076,4.868 9.143,4.617 6.247,3.85 2.194,4.943 0.098,7.051 -0.62,7.772 -1.021,8.524 -1.114,9.236 l 0.336,-7.645 h 0.015 C -0.771,1.093 -0.528,0.531 0,0" /></g><g
             transform="translate(368.3701,357.2651)"
             id="g296"><path
               inkscape:connector-curvature="0"
               id="path298"
               style="fill:#fafafa;fill-opacity:1;fill-rule:nonzero;stroke:none"
               d="m 0,0 c 0.168,0.656 0.778,1.184 1.775,1.45 1.986,0.525 4.766,-0.225 6.202,-1.684 0.732,-0.737 0.992,-1.504 0.8,-2.152 L -1.47,-40.242 c 0.073,0.593 -0.202,1.266 -0.841,1.908 -1.451,1.458 -4.255,2.216 -6.241,1.691 -0.909,-0.242 -1.488,-0.707 -1.711,-1.275 z" /></g><g
             transform="translate(369.1709,355.1289)"
             id="g300"><path
               inkscape:connector-curvature="0"
               id="path302"
               style="fill:#e1e1e1;fill-opacity:1;fill-rule:nonzero;stroke:none"
               d="M 0,0 C 1.443,-1.451 4.224,-2.201 6.21,-1.676 7.19,-1.41 7.793,-0.89 7.96,-0.25 8.151,0.398 7.908,1.166 7.176,1.902 5.74,3.361 2.96,4.111 0.975,3.586 -0.022,3.32 -0.633,2.792 -0.801,2.136 -0.976,1.489 -0.717,0.721 0,0" /></g><g
             transform="translate(365.5469,374.1133)"
             id="g304"><path
               inkscape:connector-curvature="0"
               id="path306"
               style="fill:#ff5555;fill-opacity:1;fill-rule:nonzero;stroke:none"
               d="M 0,0 V 0 L 0.031,0.114 C 0.045,0.167 0.059,0.22 0.074,0.272 l 2.949,10.88 C 3.05,11.27 3.081,11.385 3.118,11.5 l 0.023,0.082 0.006,-0.002 c 0.531,1.533 2.022,2.786 4.411,3.42 5.038,1.336 12.103,-0.577 15.78,-4.272 1.849,-1.858 2.486,-3.812 2.025,-5.467 h 0.001 L 22.371,-5.805 c -0.008,-0.027 -0.015,-0.054 -0.022,-0.081 l -0.025,-0.089 c -0.49,-1.59 -2.01,-2.891 -4.463,-3.542 C 12.823,-10.854 5.758,-8.941 2.081,-5.246 0.315,-3.47 -0.347,-1.606 0,0" /></g><g
             id="g308"><g
               id="g310" /><g
               id="g322"><g
                 style="opacity:0.05000311"
                 id="g320"
                 clip-path="url(#clipPath314)"><g
                   id="g318"
                   transform="translate(365.5469,374.1133)"><path
                     inkscape:connector-curvature="0"
                     id="path316"
                     style="fill:#000000;fill-opacity:1;fill-rule:nonzero;stroke:none"
                     d="M 0,0 V 0 L 0.031,0.114 C 0.045,0.167 0.059,0.22 0.074,0.272 l 2.949,10.88 C 3.05,11.27 3.081,11.385 3.118,11.5 l 0.023,0.082 0.006,-0.002 c 0.531,1.533 2.022,2.786 4.411,3.42 5.038,1.336 12.103,-0.577 15.78,-4.272 1.849,-1.858 2.486,-3.812 2.025,-5.467 h 0.001 L 22.371,-5.805 c -0.008,-0.027 -0.015,-0.054 -0.022,-0.081 l -0.025,-0.089 c -0.49,-1.59 -2.01,-2.891 -4.463,-3.542 C 12.823,-10.854 5.758,-8.941 2.081,-5.246 0.315,-3.47 -0.347,-1.606 0,0" /></g></g></g></g><g
             transform="translate(309.9492,141.0435)"
             id="g324"><path
               inkscape:connector-curvature="0"
               id="path326"
               style="fill:#375a64;fill-opacity:1;fill-rule:nonzero;stroke:none"
               d="m 0,0 4.27,15.776 43.673,162.236 c -0.007,0.024 0,0.048 0.017,0.063 l 0.087,0.34 c 0.223,0.568 0.802,1.033 1.711,1.276 1.985,0.525 4.79,-0.233 6.241,-1.692 0.639,-0.642 0.913,-1.314 0.841,-1.907 0.008,-0.008 0,-0.016 0,-0.016 L 56.72,175.642 13.039,13.414 8.777,-2.386 C 8.609,-3.026 8.007,-3.546 7.026,-3.813 5.595,-4.196 3.745,-3.907 2.301,-3.168 2.096,-3.073 1.906,-2.961 1.717,-2.85 1.377,-2.636 1.077,-2.398 0.817,-2.137 0.1,-1.416 -0.175,-0.648 0,0" /></g><g
             transform="translate(358.7656,317.1475)"
             id="g328"><path
               inkscape:connector-curvature="0"
               id="path330"
               style="fill:#1a2e35;fill-opacity:1;fill-rule:nonzero;stroke:none"
               d="M 0,0 C 1.443,-1.45 4.224,-2.201 6.209,-1.676 7.19,-1.41 7.792,-0.889 7.96,-0.25 8.151,0.398 7.908,1.166 7.175,1.903 5.74,3.361 2.959,4.111 0.974,3.586 -0.023,3.32 -0.633,2.792 -0.801,2.137 -0.977,1.489 -0.718,0.721 0,0" /></g><g
             transform="translate(309.9492,141.0435)"
             id="g332"><path
               inkscape:connector-curvature="0"
               id="path334"
               style="fill:#1a2e35;fill-opacity:1;fill-rule:nonzero;stroke:none"
               d="M 0,0 0.646,2.387 C 3.303,1.011 6.432,0.166 9.425,0.016 L 8.777,-2.386 C 8.609,-3.026 8.007,-3.546 7.026,-3.813 5.595,-4.196 3.745,-3.907 2.301,-3.168 1.725,-2.89 1.219,-2.541 0.817,-2.137 0.1,-1.416 -0.175,-0.648 0,0" /></g><g
             transform="translate(369.6143,379.689)"
             id="g336"><path
               inkscape:connector-curvature="0"
               id="path338"
               style="fill:#e1e1e1;fill-opacity:1;fill-rule:nonzero;stroke:none"
               d="m 0,0 c 4.082,-4.103 11.948,-6.225 17.565,-4.741 2.775,0.753 4.478,2.225 4.953,4.035 0.541,1.832 -0.147,4.003 -2.221,6.088 C 16.237,9.507 8.371,11.63 2.754,10.146 -0.065,9.393 -1.791,7.899 -2.266,6.044 -2.763,4.211 -2.03,2.04 0,0" /></g><g
             transform="translate(369.9541,380.9199)"
             id="g340"><path
               inkscape:connector-curvature="0"
               id="path342"
               style="fill:#ff5555;fill-opacity:1;fill-rule:nonzero;stroke:none"
               d="m 0,0 c 4.082,-4.103 11.948,-6.225 17.565,-4.741 2.776,0.753 4.479,2.225 4.954,4.035 l 0.032,0.081 0.67,2.417 c 0.008,0.055 0.015,0.095 0.032,0.142 0.032,0.127 0.048,0.253 0.072,0.387 0.031,0.174 0.04,0.356 0.041,0.53 0,0.11 0,0.221 -0.008,0.34 0.009,0.023 0.009,0.039 0.001,0.063 -0.007,0.102 -0.015,0.222 -0.039,0.34 -0.062,0.49 -0.203,0.981 -0.423,1.487 -0.063,0.143 -0.126,0.285 -0.196,0.42 C 22.669,5.58 22.638,5.643 22.591,5.707 22.527,5.833 22.457,5.952 22.378,6.063 22.016,6.665 21.543,7.251 20.96,7.837 16.875,11.942 9.022,14.065 3.43,12.585 1.793,12.155 0.542,11.462 -0.33,10.595 L -0.354,10.571 C -0.488,10.438 -0.615,10.295 -0.727,10.153 L -1.036,9.719 C -1.1,9.625 -1.147,9.53 -1.194,9.435 L -1.29,9.262 C -1.346,9.143 -1.401,9.025 -1.441,8.89 L -1.473,8.812 C -1.513,8.693 -1.561,8.566 -1.593,8.44 L -2.175,6.331 C -2.151,6.403 -2.221,6.215 -2.265,6.043 -2.762,4.211 -2.029,2.04 0,0" /></g><g
             id="g344"><g
               id="g346" /><g
               id="g358"><g
                 style="opacity:0.30000299"
                 id="g356"
                 clip-path="url(#clipPath350)"><g
                   id="g354"
                   transform="translate(370.6416,383.355)"><path
                     inkscape:connector-curvature="0"
                     id="path352"
                     style="fill:#ffffff;fill-opacity:1;fill-rule:nonzero;stroke:none"
                     d="m 0,0 c 4.081,-4.102 11.945,-6.224 17.562,-4.74 2.774,0.753 4.477,2.224 4.952,4.034 0.541,1.832 -0.148,4.002 -2.221,6.087 C 16.234,9.506 8.369,11.627 2.754,10.144 -0.065,9.391 -1.791,7.897 -2.266,6.042 -2.762,4.21 -2.03,2.04 0,0" /></g></g></g></g><g
             transform="translate(402.3838,334.7524)"
             id="g360"><path
               inkscape:connector-curvature="0"
               id="path362"
               style="fill:#1a2e35;fill-opacity:1;fill-rule:nonzero;stroke:none"
               d="m 0,0 v 0 c 11.093,0 16.526994,11.613688 16.526994,22.706688 v 1.11 C 16.526994,33.217688 12.464,38.218 3.063,38.218 h -6.126 c -9.401,0 -14.86847,-7.06021 -14.86847,-16.46221 v -1.109 C -17.93147,9.5537904 -11.093,0 0,0"
               sodipodi:nodetypes="ccssssssc" /></g><g
             transform="translate(379.335,133.6929)"
             id="g372"><path
               inkscape:connector-curvature="0"
               id="path374"
               style="fill:#ffb380;fill-opacity:1;fill-rule:nonzero;stroke:none"
               d="m -6.8668909,4.9701593 c 6.7426363,2.5869811 5.7355731,1.4563815 8.10845,5.2489927 0.8269999,1.329001 3.0387373,2.210509 3.0827373,3.971509 0.056,2.24 -0.16,6.227 -0.16,6.227 L 16.565,20.417 16.958,11.992 h 0.001 C 16.901169,3.3298216 9.7617285,7.0628474 6.9657285,4.6538474 c -2.795,-2.409 -4.8613561,-3.2329379 -8.0173009,-3.87955909 -3.5410782,-0.69466975 -3.4313139,-0.0414116 -6.2806991,1.01619079 -2.8323985,2.1353602 0.4653806,3.1796802 0.4653806,3.1796802 z"
               sodipodi:nodetypes="ccccccccccc" /></g><g
             transform="translate(408.4551,128.0342)"
             id="g376" /><g
             transform="translate(406.0781,125.665)"
             id="g380"><path
               inkscape:connector-curvature="0"
               id="path382"
               style="fill:#ffb380;fill-opacity:1;fill-rule:nonzero;stroke:none"
               d="m -3.9724579,0.13241526 v 0.018 c 0.814,0.746 1.612,1.51600004 2.378,2.35300004 0.98000004,1.074 5.0312663,4.4316317 6.3912663,6.6176317 0.827,1.329 0.4411558,3.091 0.5701558,4.848 0.145,1.967 -0.6114221,5.965368 -0.6114221,5.965368 L 16.758,19.759 14.80447,11.897368 15.741788,7.9658356 c 0.207,-1.91 -1.255792,-3.9834248 -4.051792,-6.3924248 C 8.8949963,-0.83658918 9.6030036,-3.484849 7.0720037,-4.897849 c -2.5300001,-1.413 -11.4714616,0.2052643 -12.5504616,0.9282643 -1.111,0.744 -1.221,1.315 1.506,4.10199996"
               sodipodi:nodetypes="ccccccccccccc" /></g><g
             transform="translate(422.9346,275.5732)"
             id="g384"><path
               sodipodi:nodetypes="cccccccccccccc"
               inkscape:connector-curvature="0"
               id="path386"
               style="fill:#2b454e;fill-opacity:1;fill-rule:nonzero;stroke:none"
               d="m -6.7002551,0.371426 c 7,-15.29 2.9293032,-70.07642 2.9293032,-70.07642 0.21,-2.481 2.96079039,-10.454796 3.21579039,-18.034796 0.329,-9.728 0.85116151,-45.09221 0.85116151,-45.09221 0,0 -7.4004788,-2.74026 -12.344479,-0.36926 0,0 -5.106521,48.95226 -6.724521,61.78126 -1.413,11.196 -4.123,37.512 -4.123,37.512 l -2.204258,-35.016575 c 0,0 -0.505742,-8.686425 -0.357742,-14.331425 0.199,-7.578 -0.919,-42.75 -0.919,-42.75 0,0 -7.325533,-1.191 -13.239533,-0.32 0,0 -1.128725,53.589431 -1.920725,62.671431 -0.474,5.425 0.209258,65.945569 0.209258,65.945569 z" /></g><g
             transform="translate(400.0381,241.6655)"
             id="g388"><path
               sodipodi:nodetypes="ccccccc"
               inkscape:connector-curvature="0"
               id="path390"
               style="fill:#1a2e35;fill-opacity:1;fill-rule:nonzero;stroke:none"
               d="M 0,0 -3.4892125,5.9487789 C -6.7823185,8.1503333 -11.3049,12.042291 -15.967105,24.211904 c 0,0 6.3422635,-17.5242905 13.1372635,-19.3872905 L -2.325,0.106 -2.4811273,-41.285771 Z" /></g><g
             transform="translate(409.2705,328.7446)"
             id="g392"><path
               sodipodi:nodetypes="ccccccccccc"
               inkscape:connector-curvature="0"
               id="path394"
               style="fill:#f5f5f5;fill-opacity:1;fill-rule:nonzero;stroke:none"
               d="m 0,0 v 0 c 6.142,-0.849 12.806742,-0.70589233 14.788742,-6.4788923 1.297,-3.7759997 0.946,-9.3319997 -0.358,-13.1059997 L 5.69,-36.771 c 0,0 -1.4051551,-7.877974 1.2738449,-16.028974 -15.695,-8.76 -29.9078449,-4.473026 -34.6278449,1.919974 -0.199,1.356 1.072,7.911 0.692,14.865 -0.406,7.415 0.287722,13.320584 2.448198,21.808452 2.164,8.508 5.224802,12.769548 11.912802,14.562548 z" /></g><g
             style="fill:#ffb380;fill-opacity:1"
             transform="translate(388.8965,364.8467)"
             id="g396"><path
               sodipodi:nodetypes="cccccsccccccccc"
               inkscape:connector-curvature="0"
               id="path398"
               style="fill:#ffb380;fill-opacity:1;fill-rule:nonzero;stroke:none"
               d="m 0,0 c -2.122,-1.253 -4.743,-6.59 -4.485,-17.776 0.219,-9.48 3.293,-11.822 4.836,-12.497 1.543,-0.676 2.1303909,-0.358632 5.0243909,0.123368 v -5.69 c 0,0 -1.6113909,-4.550368 -1.3593909,-7.159368 0.252,-2.609 5.773,-3.226 9.515,-0.677 3.741,2.549 6.141,6.429 6.141,6.429 v 1.170831 12.582169 c 0,0 1.953,-2.608 5.147,-0.486 3.195,2.121 3.317,7.372 1.459,9.257 -1.857,1.886 -5.485473,0.352683 -6.231473,-2.252317 0,0 3.157434,10.1304898 -2.987566,13.50649 C 10.91596,-0.093827 0.408,-3.676 0,0" /></g><g
             transform="translate(396.6592,334.791)"
             id="g420"><path
               inkscape:connector-curvature="0"
               id="path422"
               style="fill:#b0494c;fill-opacity:1;fill-rule:nonzero;stroke:none"
               d="M -2.3873091,-0.093932 C 0.6616909,0.306068 9.321,2.202 10.299,4.682 10.299,4.682 9.974,3.123 8.1,1.517 6.226,-0.089 -2.3873091,-1.991932 -2.3873091,-1.991932 Z"
               sodipodi:nodetypes="ccscc" /></g><g
             style="fill:#ffb380"
             transform="translate(348.4062,282.5376)"
             id="g424"><path
               inkscape:connector-curvature="0"
               id="path426"
               style="fill:#ffb380;fill-opacity:1;fill-rule:nonzero;stroke:none"
               d="m 0,0 c 1.863,-0.704 3.732,-0.752 6.277,-1.953 2.242,-1.057 3.184,-1.454 5.49,-1.565 2.499,-0.121 9.488,2.86 15.635,5.717 7.253,3.371 14.966,9.477 17.934,12.83 6.025,6.805 11.169,15.319 13.824,19.868 2.188,3.748 4.443,9.189 7.893,9.874 C 73.097,44.138 75.55,33.614 71.63,27.111 67.709,20.608 60.741,12.105 53.31,4.898 49.708,1.405 43.107,-2.38 33.658,-6.423 c -7.13,-3.052 -12.853,-4.946 -19.079,-6.569 -1.893,-0.493 -3.228,-1.195 -6.782,-2.415 -1.434,-0.492 -2.99,-1.076 -4.502,-1.116 -1.921,-0.052 -3.857,0.113 -5.717,0.611 -2.343,0.626 -4.568,1.795 -6.258,3.535 -0.929,0.957 -1.697,2.094 -2.092,3.369 -0.396,1.274 -0.398,2.692 0.133,3.916 0.108,0.248 0.243,0.495 0.46,0.657 0.391,0.293 0.932,0.239 1.415,0.168 2.702,-0.392 5.557,-1.218 8.274,-1.322 2.296,-0.089 3.929,0.166 3.639,0.523 -0.29,0.358 -1.642,0.316 -3.385,1.304 C -1.9,-2.818 -2.973,-0.9 -2.369,-0.007 -1.766,0.885 -1.863,0.704 0,0" /></g><g
             style="fill:#ffb380;fill-opacity:1"
             transform="translate(348.3291,307.7285)"
             id="g428"><path
               inkscape:connector-curvature="0"
               id="path430"
               style="fill:#ffb380;fill-opacity:1;fill-rule:nonzero;stroke:none"
               d="M 0,0 C 0,0 2.498,1.987 7.247,1.207 9.544,0.829 8.665,-7.868 1.273,-10.29 c -4.809,-1.576 -5.788,-0.765 -7.339,-4.722 0,0 -2.904,0.603 -2.197,5.027 0.706,4.423 2.637,8.456 5.862,12.262 2.119,2.502 2.26,4.608 3.3,3.895 C 2.076,5.367 1.355,3.3 1.355,3.3 Z" /></g><path
             id="path1237"
             transform="matrix(0.75000002,0,0,-0.75000002,0,500.00002)"
             d="m 553.94531,230.25586 c -4.6,0.91333 -7.6061,8.16673 -10.52343,13.16406 -1.92178,3.29272 -4.84405,8.15509 -8.37891,13.35352 l 0.004,0.0176 c 0,0 16.57289,-3.08296 11.93554,14.54492 5.3161,-6.17166 10.10338,-12.62827 13.23942,-17.82942 5.22666,-8.67066 1.78214,-22.40666 -6.27653,-23.25066 z"
             style="opacity:1;vector-effect:none;fill:#f5f5f5;fill-opacity:1;fill-rule:evenodd;stroke:none;stroke-width:5;stroke-linecap:round;stroke-linejoin:round;stroke-miterlimit:4;stroke-dasharray:none;stroke-dashoffset:0;stroke-opacity:1;paint-order:normal"
             inkscape:connector-curvature="0"
             sodipodi:nodetypes="ccccccc" /></g></g></g></g></svg>